<svg width="133" height="160" viewBox="0 0 133 160" fill="none" xmlns="http://www.w3.org/2000/svg">
<path d="M44.7116 0H89.4232L100.544 1.83149L107.126 4.34979L115.524 9.38638L122.333 15.7966L127.326 22.8936L131.184 31.8221L133 41.8953V81.0434L132.546 85.1643L130.049 94.5506L125.056 104.166L122.106 108.058L117.113 113.094L110.758 117.673L103.495 121.107L92.1468 123.626L65.8191 123.397V109.66L66.273 106.913L68.3157 102.792L70.5853 100.503L74.8976 98.6715L90.1041 98.4426L93.0546 97.7558L97.1399 95.9243L100.09 93.8638L104.176 89.2851L106.218 85.3932L107.353 81.7302L107.807 78.7541V45.7872L106.445 39.8349L103.495 34.3404L100.09 30.6775L95.0973 27.4723L88.7423 25.6409H45.1655L38.5836 27.4723L33.5904 30.6775L30.6399 33.6536L28.1433 37.3166L25.6468 44.4136V77.6094H38.3567L39.9454 76.9226L56.5137 59.9813L49.2509 52.4264L49.0239 49.9081L50.6126 47.6187L52.4283 46.9319H80.1178L82.1604 47.8477L83.5222 49.9081L83.2952 78.983L81.9334 80.8145L80.3447 81.5013H78.529L77.3942 81.0434L71.2662 75.0911L44.2577 102.334L41.0802 103.708H14.7526L12.029 104.166L6.12799 106.684L2.49659 109.889L0.453925 113.094H0V44.6426L0.90785 37.7745L2.95051 30.6775L5.90102 24.2672L9.75939 18.3149L15.6604 11.9047L19.2918 8.92851L24.285 5.7234L31.5478 2.5183L38.5836 0.686809L44.7116 0Z" fill="url(#paint0_linear_275_3)"/>
<rect x="21.9123" y="123.625" width="35.7401" height="35.7401" rx="10" fill="#EA580C"/>
<defs>
<linearGradient id="paint0_linear_275_3" x1="152.276" y1="-48.044" x2="8.43653" y2="116.595" gradientUnits="userSpaceOnUse">
<stop stop-color="#FDBA74"/>
<stop offset="1" stop-color="#EA580C"/>
</linearGradient>
</defs>
</svg>
